<svg xmlns="http://www.w3.org/2000/svg" version="1.1" xmlns:xlink="http://www.w3.org/1999/xlink" xmlns:svgjs="http://svgjs.dev/svgjs" width="2000" height="1500" viewBox="0 0 2000 1500"><rect width="2000" height="1500" fill="#000000"></rect><g transform="matrix(0.75,0,0,0.75,249.090909090909,604.7916151928056)"><svg viewBox="0 0 396 77" data-background-color="#636365" preserveAspectRatio="xMidYMid meet" height="388" width="2000" xmlns="http://www.w3.org/2000/svg" xmlns:xlink="http://www.w3.org/1999/xlink"><g id="tight-bounds" transform="matrix(1,0,0,1,0.2400000000000091,-0.07716278297604617)"><svg viewBox="0 0 395.52 77.1543255659521" height="77.1543255659521" width="395.52"><g><svg viewBox="0 0 660.9182442726294 128.92572155918262" height="77.1543255659521" width="395.52"><g transform="matrix(1,0,0,1,263.4206442726295,2.1881453724440263)"><svg viewBox="0 0 397.4975999999999 124.54943081429457" height="124.54943081429457" width="397.4975999999999"><g id="textblocktransform"><svg viewBox="0 0 397.4975999999999 124.54943081429457" height="124.54943081429457" width="397.4975999999999" id="textblock"><g><rect width="397.4975999999999" height="6.787042694544484" x="0" y="83.25540946975703" fill="#ffffff" opacity="1" stroke-width="0" stroke="transparent" fill-opacity="1" class="rect-qz-0" data-fill-palette-color="primary" rx="1%" id="qz-0" data-palette-color="#ffffff"></rect></g><g transform="matrix(1,0,0,1,0.9887999999999693,0)"><svg viewBox="0 0 395.52 75.26020210707374" height="75.26020210707374" width="395.52"><g transform="matrix(1,0,0,1,0,0)"><svg width="395.52" viewBox="4.35 -35.25 232.53 44.25" height="75.26020210707374" data-palette-color="#ffffff"><path d="M25.95-11.5L32.1 0 27.6 0 21.6-11.3Q20.5-13.35 19.03-14.13 17.55-14.9 15-14.9L15-14.9 8.4-14.9 8.4 0 4.35 0 4.35-35.25 18.85-35.25Q24.6-35.25 27.63-32.7 30.65-30.15 30.65-25.2L30.65-25.2Q30.65-21.1 28.33-18.57 26-16.05 21.7-15.4L21.7-15.4Q23.05-15 24.08-14.05 25.1-13.1 25.95-11.5L25.95-11.5ZM8.4-18.3L18.5-18.3Q22.6-18.3 24.63-20 26.65-21.7 26.65-25.15L26.65-25.15Q26.65-28.55 24.65-30.2 22.65-31.85 18.5-31.85L18.5-31.85 8.4-31.85 8.4-18.3ZM47.2-4.4L55.45-24.3 59.5-24.3 45.1 9 40.95 9 45.05-0.3 34.75-24.3 39.05-24.3 47.2-4.4ZM73.15-24.95Q77.8-24.95 80.07-22.58 82.35-20.2 82.35-15.35L82.35-15.35 82.35 0 78.4 0 78.4-4.15Q77.45-2 75.5-0.83 73.55 0.35 71 0.35L71 0.35Q68.65 0.35 66.67-0.6 64.7-1.55 63.55-3.25 62.4-4.95 62.4-7L62.4-7Q62.4-9.75 63.8-11.28 65.2-12.8 68.4-13.48 71.6-14.15 77.3-14.15L77.3-14.15 78.4-14.15 78.4-15.8Q78.4-18.85 77.15-20.23 75.9-21.6 73.1-21.6L73.1-21.6Q68.9-21.6 64.75-19L64.75-19 63.4-21.95Q65.3-23.3 67.97-24.13 70.65-24.95 73.15-24.95L73.15-24.95ZM71.55-2.85Q74.55-2.85 76.47-4.88 78.4-6.9 78.4-10.1L78.4-10.1 78.4-11.55 77.5-11.55Q73.1-11.55 70.8-11.18 68.5-10.8 67.52-9.93 66.55-9.05 66.55-7.35L66.55-7.35Q66.55-5.4 67.97-4.13 69.4-2.85 71.55-2.85L71.55-2.85ZM101.99-24.95Q110.74-24.95 110.74-15.3L110.74-15.3 110.74 0 106.69 0 106.69-15.05Q106.69-18.45 105.37-20 104.04-21.55 101.14-21.55L101.14-21.55Q97.79-21.55 95.79-19.5 93.79-17.45 93.79-13.95L93.79-13.95 93.79 0 89.74 0 89.74-24.35 93.74-24.35 93.74-20.35Q94.94-22.6 97.09-23.78 99.24-24.95 101.99-24.95L101.99-24.95ZM151.64-18.1Q154.69-17.3 156.36-15.1 158.04-12.9 158.04-9.6L158.04-9.6Q158.04-4.95 154.99-2.48 151.94 0 146.34 0L146.34 0 131.64 0 131.64-35.25 145.79-35.25Q151.24-35.25 154.24-32.85 157.24-30.45 157.24-26.05L157.24-26.05Q157.24-23.2 155.76-21.15 154.29-19.1 151.64-18.1L151.64-18.1ZM135.69-31.85L135.69-19.6 145.19-19.6Q149.14-19.6 151.16-21.2 153.19-22.8 153.19-25.85L153.19-25.85Q153.19-31.85 145.19-31.85L145.19-31.85 135.69-31.85ZM145.94-3.4Q150.09-3.4 152.06-4.93 154.04-6.45 154.04-9.7L154.04-9.7Q154.04-16.2 145.94-16.2L145.94-16.2 135.69-16.2 135.69-3.4 145.94-3.4ZM174.64-24.95Q179.29-24.95 181.56-22.58 183.84-20.2 183.84-15.35L183.84-15.35 183.84 0 179.89 0 179.89-4.15Q178.94-2 176.99-0.83 175.04 0.35 172.49 0.35L172.49 0.35Q170.14 0.35 168.16-0.6 166.19-1.55 165.04-3.25 163.89-4.95 163.89-7L163.89-7Q163.89-9.75 165.29-11.28 166.69-12.8 169.89-13.48 173.09-14.15 178.79-14.15L178.79-14.15 179.89-14.15 179.89-15.8Q179.89-18.85 178.64-20.23 177.39-21.6 174.59-21.6L174.59-21.6Q170.39-21.6 166.24-19L166.24-19 164.89-21.95Q166.79-23.3 169.46-24.13 172.14-24.95 174.64-24.95L174.64-24.95ZM173.04-2.85Q176.04-2.85 177.96-4.88 179.89-6.9 179.89-10.1L179.89-10.1 179.89-11.55 178.99-11.55Q174.59-11.55 172.29-11.18 169.99-10.8 169.01-9.93 168.04-9.05 168.04-7.35L168.04-7.35Q168.04-5.4 169.46-4.13 170.89-2.85 173.04-2.85L173.04-2.85ZM201.53 0.35Q197.93 0.35 195.28-1.2 192.63-2.75 191.21-5.58 189.78-8.4 189.78-12.2L189.78-12.2Q189.78-16 191.26-18.88 192.73-21.75 195.41-23.35 198.08-24.95 201.68-24.95L201.68-24.95Q204.13-24.95 206.48-24.08 208.83-23.2 210.28-21.75L210.28-21.75 208.93-18.75Q205.48-21.55 201.93-21.55L201.93-21.55Q198.18-21.55 196.08-19.1 193.98-16.65 193.98-12.2L193.98-12.2Q193.98-7.8 196.08-5.4 198.18-3 201.93-3L201.93-3Q205.48-3 208.93-5.8L208.93-5.8 210.28-2.8Q208.73-1.35 206.38-0.5 204.03 0.35 201.53 0.35L201.53 0.35ZM223.63-12.65L236.88 0 231.63 0 219.23-11.65 219.23 0 215.18 0 215.18-35.25 219.23-35.25 219.23-13.3 230.58-24.3 235.73-24.3 223.63-12.65Z" opacity="1" transform="matrix(1,0,0,1,0,0)" fill="#ffffff" class="wordmark-text-0" data-fill-palette-color="primary" id="text-0"></path></svg></g></svg></g><g transform="matrix(1,0,0,1,0,98.0376595269848)"><svg viewBox="0 0 232.20979200000002 26.511771287309763" height="26.511771287309763" width="232.20979200000002"><g transform="matrix(1,0,0,1,0,0)"><svg width="232.20979200000002" viewBox="2.32 -38.01 421.86 48.17" height="26.511771287309763" data-palette-color="#ffffff"><path d="M18.8-7.01L18.8-7.01Q18.8-8.84 17.42-9.85 16.04-10.86 12.61-11.6 9.18-12.33 7.17-13.35 5.15-14.38 4.19-15.8 3.22-17.21 3.22-19.17L3.22-19.17Q3.22-22.41 5.97-24.66 8.72-26.9 12.99-26.9L12.99-26.9Q17.48-26.9 20.28-24.58 23.07-22.27 23.07-18.65L23.07-18.65 18.53-18.65Q18.53-20.51 16.96-21.85 15.38-23.19 12.99-23.19L12.99-23.19Q10.52-23.19 9.13-22.12 7.74-21.04 7.74-19.31L7.74-19.31Q7.74-17.68 9.03-16.85 10.33-16.02 13.71-15.26 17.09-14.5 19.19-13.45 21.29-12.4 22.3-10.93 23.32-9.45 23.32-7.32L23.32-7.32Q23.32-3.78 20.48-1.65 17.65 0.49 13.13 0.49L13.13 0.49Q9.96 0.49 7.52-0.63 5.08-1.76 3.7-3.77 2.32-5.79 2.32-8.13L2.32-8.13 6.84-8.13Q6.96-5.86 8.65-4.53 10.35-3.2 13.13-3.2L13.13-3.2Q15.7-3.2 17.25-4.24 18.8-5.27 18.8-7.01ZM28-13.13L28-13.45Q28-17.33 29.53-20.43 31.05-23.54 33.77-25.22 36.5-26.9 39.99-26.9L39.99-26.9Q45.38-26.9 48.72-23.17 52.05-19.43 52.05-13.23L52.05-13.23 52.05-12.92Q52.05-9.06 50.57-5.99 49.09-2.93 46.35-1.22 43.6 0.49 40.04 0.49L40.04 0.49Q34.67 0.49 31.33-3.25 28-6.98 28-13.13L28-13.13ZM32.54-12.92L32.54-12.92Q32.54-8.52 34.58-5.86 36.62-3.2 40.04-3.2L40.04-3.2Q43.48-3.2 45.51-5.9 47.53-8.59 47.53-13.45L47.53-13.45Q47.53-17.8 45.47-20.5 43.41-23.19 39.99-23.19L39.99-23.19Q36.64-23.19 34.59-20.53 32.54-17.87 32.54-12.92ZM64.45 0L59.93 0 59.93-22.92 55.76-22.92 55.76-26.42 59.93-26.42 59.93-29.13Q59.93-33.37 62.2-35.69 64.47-38.01 68.62-38.01L68.62-38.01Q70.19-38.01 71.72-37.6L71.72-37.6 71.48-33.94Q70.33-34.16 69.04-34.16L69.04-34.16Q66.84-34.16 65.64-32.87 64.45-31.59 64.45-29.2L64.45-29.2 64.45-26.42 70.09-26.42 70.09-22.92 64.45-22.92 64.45 0ZM76.68-32.81L81.19-32.81 81.19-26.42 86.13-26.42 86.13-22.92 81.19-22.92 81.19-6.54Q81.19-4.96 81.85-4.16 82.51-3.37 84.1-3.37L84.1-3.37Q84.88-3.37 86.25-3.66L86.25-3.66 86.25 0Q84.47 0.49 82.78 0.49L82.78 0.49Q79.75 0.49 78.22-1.34 76.68-3.17 76.68-6.54L76.68-6.54 76.68-22.92 71.87-22.92 71.87-26.42 76.68-26.42 76.68-32.81ZM108.51-26.42L114.78-6.23 119.86-26.42 124.38-26.42 116.69 0 113.03 0 106.61-20.02 100.36 0 96.69 0 89.03-26.42 93.52-26.42 98.72-6.64 104.87-26.42 108.51-26.42ZM150.01 0L145.28 0Q144.88-0.78 144.64-2.78L144.64-2.78Q141.49 0.49 137.12 0.49L137.12 0.49Q133.22 0.49 130.71-1.72 128.21-3.93 128.21-7.32L128.21-7.32Q128.21-11.45 131.35-13.73 134.48-16.02 140.17-16.02L140.17-16.02 144.57-16.02 144.57-18.09Q144.57-20.46 143.15-21.86 141.74-23.27 138.98-23.27L138.98-23.27Q136.56-23.27 134.92-22.05 133.29-20.83 133.29-19.09L133.29-19.09 128.75-19.09Q128.75-21.07 130.15-22.91 131.55-24.76 133.96-25.83 136.36-26.9 139.25-26.9L139.25-26.9Q143.81-26.9 146.4-24.62 148.99-22.34 149.08-18.33L149.08-18.33 149.08-6.18Q149.08-2.54 150.01-0.39L150.01-0.39 150.01 0ZM137.78-3.44L137.78-3.44Q139.9-3.44 141.81-4.54 143.71-5.64 144.57-7.4L144.57-7.4 144.57-12.82 141.03-12.82Q132.73-12.82 132.73-7.96L132.73-7.96Q132.73-5.83 134.14-4.64 135.56-3.44 137.78-3.44ZM168.93-26.56L168.93-22.36Q167.9-22.53 166.71-22.53L166.71-22.53Q162.27-22.53 160.68-18.75L160.68-18.75 160.68 0 156.16 0 156.16-26.42 160.56-26.42 160.63-23.36Q162.85-26.9 166.93-26.9L166.93-26.9Q168.25-26.9 168.93-26.56L168.93-26.56ZM183.58 0.49L183.58 0.49Q178.21 0.49 174.84-3.04 171.47-6.57 171.47-12.48L171.47-12.48 171.47-13.31Q171.47-17.24 172.97-20.32 174.47-23.41 177.17-25.16 179.87-26.9 183.01-26.9L183.01-26.9Q188.17-26.9 191.02-23.51 193.88-20.12 193.88-13.79L193.88-13.79 193.88-11.91 175.98-11.91Q176.08-8.01 178.27-5.6 180.45-3.2 183.82-3.2L183.82-3.2Q186.21-3.2 187.87-4.17 189.53-5.15 190.78-6.76L190.78-6.76 193.54-4.61Q190.22 0.49 183.58 0.49ZM183.01-23.19L183.01-23.19Q180.28-23.19 178.42-21.2 176.57-19.21 176.13-15.63L176.13-15.63 189.36-15.63 189.36-15.97Q189.17-19.41 187.51-21.3 185.85-23.19 183.01-23.19ZM210.38-13.09L210.38-13.43Q210.38-19.51 213.26-23.21 216.14-26.9 220.8-26.9L220.8-26.9Q225.44-26.9 228.15-23.73L228.15-23.73 228.15-37.5 232.67-37.5 232.67 0 228.52 0 228.3-2.83Q225.59 0.49 220.75 0.49L220.75 0.49Q216.16 0.49 213.27-3.27 210.38-7.03 210.38-13.09L210.38-13.09ZM214.89-12.92L214.89-12.92Q214.89-8.42 216.75-5.88 218.61-3.34 221.88-3.34L221.88-3.34Q226.17-3.34 228.15-7.2L228.15-7.2 228.15-19.34Q226.12-23.07 221.93-23.07L221.93-23.07Q218.61-23.07 216.75-20.51 214.89-17.94 214.89-12.92ZM250.63 0.49L250.63 0.49Q245.26 0.49 241.89-3.04 238.52-6.57 238.52-12.48L238.52-12.48 238.52-13.31Q238.52-17.24 240.03-20.32 241.53-23.41 244.23-25.16 246.92-26.9 250.07-26.9L250.07-26.9Q255.22-26.9 258.08-23.51 260.94-20.12 260.94-13.79L260.94-13.79 260.94-11.91 243.04-11.91Q243.14-8.01 245.32-5.6 247.51-3.2 250.88-3.2L250.88-3.2Q253.27-3.2 254.93-4.17 256.59-5.15 257.84-6.76L257.84-6.76 260.6-4.61Q257.27 0.49 250.63 0.49ZM250.07-23.19L250.07-23.19Q247.34-23.19 245.48-21.2 243.63-19.21 243.19-15.63L243.19-15.63 256.42-15.63 256.42-15.97Q256.23-19.41 254.56-21.3 252.9-23.19 250.07-23.19ZM267.84-26.42L274.56-6.13 281.1-26.42 285.71-26.42 276.24 0 272.8 0 263.23-26.42 267.84-26.42ZM300.7 0.49L300.7 0.49Q295.33 0.49 291.96-3.04 288.59-6.57 288.59-12.48L288.59-12.48 288.59-13.31Q288.59-17.24 290.09-20.32 291.6-23.41 294.29-25.16 296.99-26.9 300.14-26.9L300.14-26.9Q305.29-26.9 308.15-23.51 311.01-20.12 311.01-13.79L311.01-13.79 311.01-11.91 293.11-11.91Q293.21-8.01 295.39-5.6 297.58-3.2 300.95-3.2L300.95-3.2Q303.34-3.2 305-4.17 306.66-5.15 307.9-6.76L307.9-6.76 310.66-4.61Q307.34 0.49 300.7 0.49ZM300.14-23.19L300.14-23.19Q297.41-23.19 295.55-21.2 293.7-19.21 293.26-15.63L293.26-15.63 306.49-15.63 306.49-15.97Q306.29-19.41 304.63-21.3 302.97-23.19 300.14-23.19ZM321.13-37.5L321.13 0 316.62 0 316.62-37.5 321.13-37.5ZM327.16-13.13L327.16-13.45Q327.16-17.33 328.69-20.43 330.21-23.54 332.94-25.22 335.66-26.9 339.15-26.9L339.15-26.9Q344.55-26.9 347.88-23.17 351.21-19.43 351.21-13.23L351.21-13.23 351.21-12.92Q351.21-9.06 349.73-5.99 348.26-2.93 345.51-1.22 342.76 0.49 339.2 0.49L339.2 0.49Q333.83 0.49 330.49-3.25 327.16-6.98 327.16-13.13L327.16-13.13ZM331.7-12.92L331.7-12.92Q331.7-8.52 333.74-5.86 335.78-3.2 339.2-3.2L339.2-3.2Q342.64-3.2 344.67-5.9 346.69-8.59 346.69-13.45L346.69-13.45Q346.69-17.8 344.63-20.5 342.57-23.19 339.15-23.19L339.15-23.19Q335.8-23.19 333.75-20.53 331.7-17.87 331.7-12.92ZM379.19-13.33L379.19-12.92Q379.19-6.88 376.43-3.2 373.67 0.49 368.96 0.49L368.96 0.49Q364.15 0.49 361.39-2.56L361.39-2.56 361.39 10.16 356.87 10.16 356.87-26.42 361-26.42 361.22-23.49Q363.98-26.9 368.88-26.9L368.88-26.9Q373.64-26.9 376.42-23.32 379.19-19.73 379.19-13.33L379.19-13.33ZM374.67-13.43L374.67-13.43Q374.67-17.9 372.77-20.48 370.86-23.07 367.54-23.07L367.54-23.07Q363.44-23.07 361.39-19.43L361.39-19.43 361.39-6.81Q363.41-3.2 367.59-3.2L367.59-3.2Q370.84-3.2 372.75-5.77 374.67-8.35 374.67-13.43ZM395.88 0.49L395.88 0.49Q390.51 0.49 387.14-3.04 383.77-6.57 383.77-12.48L383.77-12.48 383.77-13.31Q383.77-17.24 385.27-20.32 386.78-23.41 389.47-25.16 392.17-26.9 395.32-26.9L395.32-26.9Q400.47-26.9 403.33-23.51 406.19-20.12 406.19-13.79L406.19-13.79 406.19-11.91 388.29-11.91Q388.39-8.01 390.57-5.6 392.76-3.2 396.13-3.2L396.13-3.2Q398.52-3.2 400.18-4.17 401.84-5.15 403.09-6.76L403.09-6.76 405.84-4.61Q402.52 0.49 395.88 0.49ZM395.32-23.19L395.32-23.19Q392.59-23.19 390.73-21.2 388.88-19.21 388.44-15.63L388.44-15.63 401.67-15.63 401.67-15.97Q401.47-19.41 399.81-21.3 398.15-23.19 395.32-23.19ZM424.18-26.56L424.18-22.36Q423.15-22.53 421.95-22.53L421.95-22.53Q417.51-22.53 415.92-18.75L415.92-18.75 415.92 0 411.41 0 411.41-26.42 415.8-26.42 415.88-23.36Q418.1-26.9 422.17-26.9L422.17-26.9Q423.49-26.9 424.18-26.56L424.18-26.56Z" opacity="1" transform="matrix(1,0,0,1,0,0)" fill="#ffffff" class="slogan-text-1" data-fill-palette-color="secondary" id="text-1"></path></svg></g></svg></g></svg></g></svg></g><g><svg viewBox="0 0 245.65351679999995 128.92572155918262" height="128.92572155918262" width="245.65351679999995"><g><svg xmlns="http://www.w3.org/2000/svg" xmlns:xlink="http://www.w3.org/1999/xlink" version="1.1" x="0" y="0" viewBox="5 26.381999999999998 90.001 47.23499999999999" enable-background="new 0 0 100 100" xml:space="preserve" height="128.92572155918262" width="245.65351679999995" class="icon-icon-0" data-fill-palette-color="accent" id="icon-0"><path fill="none" d="M50.482 28.475c-0.03 0.03-0.071 0.048-0.106 0.072C50.411 28.522 50.452 28.505 50.482 28.475z"></path><path fill="none" d="M50.628 28.259c-0.021 0.052-0.06 0.093-0.093 0.138C50.568 28.352 50.606 28.311 50.628 28.259z"></path><path fill="none" d="M50.553 27.618c0.025 0.037 0.058 0.069 0.075 0.111C50.61 27.688 50.578 27.655 50.553 27.618z"></path><path fill="none" d="M50.266 28.621c-0.082 0.034-0.171 0.053-0.265 0.053C50.095 28.674 50.184 28.655 50.266 28.621z"></path><path fill="none" d="M50.001 28.674c-0.375 0-0.68-0.304-0.68-0.68s0.305-0.68 0.68-0.68c-0.376 0-0.681 0.304-0.681 0.68S49.625 28.674 50.001 28.674z"></path><path fill="none" d="M50.001 27.314c0.094 0 0.183 0.019 0.265 0.053C50.184 27.333 50.095 27.314 50.001 27.314z"></path><path fill="none" d="M50.376 27.442c0.036 0.024 0.076 0.041 0.106 0.071C50.452 27.483 50.412 27.466 50.376 27.442z"></path><path fill="none" d="M54.305 70.684c0.375 0 0.678 0.305 0.68 0.68C54.984 70.988 54.68 70.684 54.305 70.684z"></path><path d="M86.63 69.109c0.108-0.227 0.177-0.478 0.177-0.746V28.107c0-0.953-0.772-1.725-1.727-1.725H14.92c-0.953 0-1.724 0.772-1.724 1.725v40.256c0 0.269 0.066 0.52 0.176 0.746H5v2.783c0 0.953 0.773 1.725 1.726 1.725h86.549c0.953 0 1.726-0.771 1.726-1.725v-2.783H86.63zM50.001 27.314c0.094 0 0.183 0.019 0.265 0.053 0.042 0.018 0.074 0.049 0.11 0.075 0.036 0.024 0.076 0.041 0.106 0.071 0.03 0.03 0.047 0.07 0.071 0.105 0.025 0.037 0.058 0.069 0.075 0.111 0.034 0.081 0.054 0.171 0.054 0.265s-0.02 0.183-0.054 0.265c-0.021 0.052-0.06 0.093-0.093 0.138-0.02 0.025-0.031 0.056-0.053 0.078-0.03 0.03-0.071 0.048-0.106 0.072-0.037 0.025-0.069 0.057-0.11 0.074-0.082 0.034-0.171 0.053-0.265 0.053-0.376 0-0.681-0.304-0.681-0.68S49.625 27.314 50.001 27.314zM16.143 29.708h67.714v36.571H16.143V29.708zM54.305 72.046h-8.608c-0.375 0-0.68-0.305-0.68-0.683 0-0.375 0.305-0.68 0.68-0.68h8.608c0.375 0 0.68 0.305 0.68 0.68C54.984 71.741 54.68 72.046 54.305 72.046z" fill="#ffffff" data-fill-palette-color="accent"></path><polygon points="25.039,48.313 25.039,49.536 25.039,49.537 44.878,49.537 44.878,49.536 44.878,48.313 44.878,48.312   25.039,48.312 " fill="#ffffff" data-fill-palette-color="accent"></polygon><rect x="36.633" y="58.613" width="3.488" height="1.225" fill="#ffffff" data-fill-palette-color="accent"></rect><rect x="46.552" y="48.313" width="3.488" height="1.224" fill="#ffffff" data-fill-palette-color="accent"></rect><rect x="39.377" y="46.296" width="3.488" height="1.224" fill="#ffffff" data-fill-palette-color="accent"></rect><rect x="20.692" y="31.829" width="3.489" height="1.224" fill="#ffffff" data-fill-palette-color="accent"></rect><rect x="20.692" y="42.131" width="3.489" height="1.224" fill="#ffffff" data-fill-palette-color="accent"></rect><rect x="20.692" y="46.296" width="3.489" height="1.224" fill="#ffffff" data-fill-palette-color="accent"></rect><rect x="20.692" y="48.313" width="3.489" height="1.224" fill="#ffffff" data-fill-palette-color="accent"></rect><rect x="20.692" y="44.191" width="5.832" height="1.224" fill="#ffffff" data-fill-palette-color="accent"></rect><rect x="25.039" y="46.296" width="12.665" height="1.224" fill="#ffffff" data-fill-palette-color="accent"></rect><rect x="20.692" y="50.373" width="3.489" height="1.223" fill="#ffffff" data-fill-palette-color="accent"></rect><rect x="20.692" y="54.494" width="3.489" height="1.223" fill="#ffffff" data-fill-palette-color="accent"></rect><rect x="53.637" y="50.373" width="3.488" height="1.223" fill="#ffffff" data-fill-palette-color="accent"></rect><rect x="25.039" y="50.373" width="27.761" height="1.223" fill="#ffffff" data-fill-palette-color="accent"></rect><rect x="20.692" y="52.434" width="27.792" height="1.223" fill="#ffffff" data-fill-palette-color="accent"></rect><rect x="25.039" y="54.494" width="23.444" height="1.223" fill="#ffffff" data-fill-palette-color="accent"></rect><rect x="20.692" y="56.555" width="17.012" height="1.223" fill="#ffffff" data-fill-palette-color="accent"></rect><rect x="20.692" y="58.613" width="14.267" height="1.225" fill="#ffffff" data-fill-palette-color="accent"></rect><rect x="20.692" y="60.674" width="7.134" height="1.225" fill="#ffffff" data-fill-palette-color="accent"></rect><rect x="20.692" y="62.736" width="5.832" height="1.223" fill="#ffffff" data-fill-palette-color="accent"></rect><rect x="20.692" y="33.89" width="8.694" height="1.224" fill="#ffffff" data-fill-palette-color="accent"></rect><rect x="20.692" y="35.95" width="11.594" height="1.224" fill="#ffffff" data-fill-palette-color="accent"></rect><rect x="20.692" y="38.01" width="8.694" height="1.224" fill="#ffffff" data-fill-palette-color="accent"></rect><rect x="20.692" y="40.071" width="8.694" height="1.224" fill="#ffffff" data-fill-palette-color="accent"></rect><rect x="18.798" y="31.829" width="1.058" height="1.224" fill="#ffffff" data-fill-palette-color="accent"></rect><rect x="18.798" y="33.89" width="1.058" height="1.224" fill="#ffffff" data-fill-palette-color="accent"></rect><rect x="18.798" y="35.95" width="1.058" height="1.224" fill="#ffffff" data-fill-palette-color="accent"></rect><rect x="18.798" y="38.01" width="1.058" height="1.224" fill="#ffffff" data-fill-palette-color="accent"></rect><rect x="18.798" y="40.071" width="1.058" height="1.224" fill="#ffffff" data-fill-palette-color="accent"></rect><rect x="18.798" y="42.131" width="1.058" height="1.224" fill="#ffffff" data-fill-palette-color="accent"></rect><rect x="18.798" y="44.191" width="1.058" height="1.224" fill="#ffffff" data-fill-palette-color="accent"></rect><rect x="18.798" y="46.252" width="1.058" height="1.224" fill="#ffffff" data-fill-palette-color="accent"></rect><rect x="18.798" y="48.313" width="1.058" height="1.224" fill="#ffffff" data-fill-palette-color="accent"></rect><rect x="18.798" y="50.373" width="1.058" height="1.223" fill="#ffffff" data-fill-palette-color="accent"></rect><rect x="18.798" y="52.434" width="1.058" height="1.223" fill="#ffffff" data-fill-palette-color="accent"></rect><rect x="18.798" y="54.494" width="1.058" height="1.223" fill="#ffffff" data-fill-palette-color="accent"></rect><rect x="18.798" y="56.555" width="1.058" height="1.223" fill="#ffffff" data-fill-palette-color="accent"></rect><rect x="18.798" y="58.613" width="1.058" height="1.225" fill="#ffffff" data-fill-palette-color="accent"></rect><rect x="18.798" y="60.674" width="1.058" height="1.225" fill="#ffffff" data-fill-palette-color="accent"></rect><rect x="18.798" y="62.736" width="1.058" height="1.223" fill="#ffffff" data-fill-palette-color="accent"></rect></svg></g></svg></g></svg></g><defs></defs></svg><rect width="395.52" height="77.1543255659521" fill="none" stroke="none" visibility="hidden"></rect></g></svg></g></svg>