<svg xmlns="http://www.w3.org/2000/svg" version="1.1" xmlns:xlink="http://www.w3.org/1999/xlink" xmlns:svgjs="http://svgjs.dev/svgjs" width="2000" height="1247" viewBox="0 0 2000 1247"><g transform="matrix(1,0,0,1,-1.2121212121212466,0.504858299595071)"><svg viewBox="0 0 396 247" data-background-color="#dedede" preserveAspectRatio="xMidYMid meet" height="1247" width="2000" xmlns="http://www.w3.org/2000/svg" xmlns:xlink="http://www.w3.org/1999/xlink"><g id="tight-bounds" transform="matrix(1,0,0,1,0.2400000000000091,-0.09999999999999432)"><svg viewBox="0 0 395.52 247.2" height="247.2" width="395.52"><g><svg></svg></g><g><svg viewBox="0 0 395.52 247.2" height="247.2" width="395.52"><mask id="77182c94-b6c5-4265-af2c-abde36818d7e"><rect width="640" height="400" fill="white"></rect><g transform="matrix(1,0,0,1,115.90126905370703,37.08)"><svg viewBox="0 0 163.71746189258593 173.04" height="173.04" width="163.71746189258593"><g><svg viewBox="0 0 163.71746189258593 173.04" height="173.04" width="163.71746189258593"><g><svg viewBox="0 0 214.4965182571773 226.71056031624693" height="173.04" width="163.71746189258593"><g><svg viewBox="0 0 214.4965182571773 226.71056031624693" height="226.71056031624693" width="214.4965182571773"><g id="SvgjsG1377"><svg viewBox="0 0 214.4965182571773 226.71056031624693" height="226.71056031624693" width="214.4965182571773" id="SvgjsSvg1376"><g><svg viewBox="0 0 214.4965182571773 171.9706128" height="171.9706128" width="214.4965182571773"><g transform="matrix(1,0,0,1,0,0)"><svg width="214.4965182571773" viewBox="-0.20000000000000018 -38.45 52.7 42.45" height="171.9706128" data-palette-color="#000000"><path d="M24.2 0L19.2 0 12.5-14.75Q12.15-14.7 11.45-14.7L11.45-14.7 8.35-14.7 8.35 0 3.8 0 3.8-34.45 10.7-34.45Q16.75-34.45 19.7-31.95 22.65-29.45 22.65-24.75L22.65-24.75Q22.65-21.45 21.1-19.07 19.55-16.7 16.65-15.6L16.65-15.6 24.2 0ZM11.05-18.2Q14.65-18.2 16.25-19.78 17.85-21.35 17.85-24.75L17.85-24.75Q17.85-27.9 16.2-29.38 14.55-30.85 10.65-30.85L10.65-30.85 8.35-30.85 8.35-18.2 11.05-18.2ZM41.1-18.2Q44.6-17.5 46.55-15.58 48.5-13.65 48.5-9.75L48.5-9.75Q48.5-4.9 45.32-2.45 42.15 0 36.6 0L36.6 0 28.9 0 28.9-34.45 35.45-34.45Q41.15-34.45 44.2-32.2 47.25-29.95 47.25-25.75L47.25-25.75Q47.25-22.8 45.62-20.9 44-19 41.1-18.2L41.1-18.2ZM35.9-30.85L33.45-30.85 33.45-19.8 36.4-19.8Q39.5-19.8 41.05-21.23 42.6-22.65 42.6-25.4L42.6-25.4Q42.6-28.35 40.97-29.6 39.35-30.85 35.9-30.85L35.9-30.85ZM36.6-3.65Q40.1-3.65 41.92-5.03 43.75-6.4 43.75-9.75L43.75-9.75Q43.75-13.2 42.02-14.73 40.3-16.25 36.75-16.25L36.75-16.25 33.45-16.25 33.45-3.65 36.6-3.65Z" opacity="1" transform="matrix(1,0,0,1,0,0)" fill="black" class="wordmark-text-0" id="SvgjsPath1375" stroke-width="7" stroke="black" stroke-linejoin="round"></path></svg></g></svg></g><g transform="matrix(1,0,0,1,3.5,205.7126086901084)"><svg viewBox="0 0 207.4965182571773 20.99795162613855" height="20.99795162613855" width="207.4965182571773"><g transform="matrix(1,0,0,1,0,0)"><svg width="207.4965182571773" viewBox="-2.4 -40.85 531.61 54.7" height="20.99795162613855" data-palette-color="#61777f"><path d="M15.55-27Q20.85-27 24.53-24.93 28.2-22.85 28.2-18.5L28.2-18.5 18.95-18.5Q18.95-19.95 17.65-20.55L17.65-20.55Q16.75-21.05 15.4-21.05L15.4-21.05Q11.8-21.05 11.8-19.35L11.8-19.35Q11.8-18.4 13.05-18 14.3-17.6 17.15-17.15L17.15-17.15Q20.65-16.65 23-15.98 25.35-15.3 27.1-13.58 28.85-11.85 28.85-8.75L28.85-8.75Q28.85-3.7 25.08-1.55 21.3 0.6 15.2 0.6L15.2 0.6Q11.7 0.6 8.6-0.38 5.5-1.35 3.55-3.4 1.6-5.45 1.6-8.6L1.6-8.6 10.85-8.6 10.85-8.4Q10.9-6.7 12.28-6.03 13.65-5.35 15.2-5.35L15.2-5.35Q19.35-5.35 19.35-7.3L19.35-7.3Q19.35-8.3 18.05-8.75 16.75-9.2 13.8-9.7L13.8-9.7Q10.25-10.3 7.98-11 5.7-11.7 4-13.38 2.3-15.05 2.3-18.05L2.3-18.05Q2.3-22.9 5.98-24.95 9.65-27 15.55-27L15.55-27ZM47.2-27Q54.15-27 58.12-23.48 62.1-19.95 62.1-13.2L62.1-13.2Q62.1-6.45 58.12-2.93 54.15 0.6 47.2 0.6L47.2 0.6Q40.25 0.6 36.3-2.9 32.35-6.4 32.35-13.2L32.35-13.2Q32.35-20 36.3-23.5 40.25-27 47.2-27L47.2-27ZM47.2-20.25Q42.3-20.25 42.3-14.6L42.3-14.6 42.3-11.75Q42.3-6.15 47.2-6.15L47.2-6.15Q52.15-6.15 52.15-11.75L52.15-11.75 52.15-14.6Q52.15-20.25 47.2-20.25L47.2-20.25ZM77.65-36.85Q78.75-36.85 80.4-36.58 82.05-36.3 83.05-35.95L83.05-35.95 83.05-30.1 80.75-30.1Q79.15-30.1 78.55-29.5 77.95-28.9 77.95-27.45L77.95-27.45 77.95-26.4 83.05-26.4 83.05-19.65 77.95-19.65 77.95 0 68 0 68-19.65 64.3-19.65 64.3-26.4 68-26.4 68-27.5Q68-32.6 70.5-34.73 73-36.85 77.65-36.85L77.65-36.85ZM98.34-26.4L103.94-26.4 103.94-19.65 98.34-19.65 98.34-9.6Q98.34-7.8 98.94-6.98 99.54-6.15 101.14-6.15L101.14-6.15 103.94-6.15 103.94-0.3Q102.74 0.1 100.84 0.35 98.94 0.6 97.54 0.6L97.54 0.6Q93.14 0.6 90.77-1 88.39-2.6 88.39-6.45L88.39-6.45 88.39-19.65 84.69-19.65 84.69-26.4 88.79-26.4 90.94-34.4 98.34-34.4 98.34-26.4ZM143.04 0L133.34 0 129.24-14.7 129.04-14.7 124.89 0 115.19 0 105.54-26.4 116.24-26.4 120.24-10.8 120.59-10.8 124.74-26.4 134.64-26.4 138.64-10.8 138.99-10.8 143.04-26.4 152.74-26.4 143.04 0ZM168.24-27Q174.29-27 178.09-24.98 181.89-22.95 181.89-18.4L181.89-18.4 181.89-8.1Q181.89-7.25 182.29-6.7 182.69-6.15 183.49-6.15L183.49-6.15 185.29-6.15 185.29-0.4Q185.14-0.3 184.51-0.08 183.89 0.15 182.74 0.38 181.59 0.6 180.09 0.6L180.09 0.6Q177.19 0.6 175.31-0.28 173.44-1.15 172.74-2.7L172.74-2.7Q170.84-1.2 168.49-0.3 166.14 0.6 162.99 0.6L162.99 0.6Q153.69 0.6 153.69-6.8L153.69-6.8Q153.69-10.65 155.76-12.68 157.84-14.7 161.74-15.45 165.64-16.2 171.94-16.2L171.94-16.2 171.94-17.5Q171.94-19.05 170.86-19.85 169.79-20.65 168.09-20.65L168.09-20.65Q166.54-20.65 165.41-20.1 164.29-19.55 164.29-18.35L164.29-18.35 164.29-18.15 154.49-18.15Q154.44-18.4 154.44-18.85L154.44-18.85Q154.44-22.6 158.01-24.8 161.59-27 168.24-27L168.24-27ZM171.94-11.5Q167.69-11.5 165.66-10.58 163.64-9.65 163.64-8.1L163.64-8.1Q163.64-5.6 167.04-5.6L167.04-5.6Q168.99-5.6 170.46-6.65 171.94-7.7 171.94-9.25L171.94-9.25 171.94-11.5ZM204.59-27.05Q205.74-27.05 206.63-26.78 207.53-26.5 207.53-26.45L207.53-26.45 207.53-18.1 204.34-18.1Q201.23-18.1 199.86-16.5 198.48-14.9 198.48-11.75L198.48-11.75 198.48 0 188.53 0 188.53-26.4 196.69-26.4 197.34-22.4Q198.23-24.7 200.19-25.88 202.13-27.05 204.59-27.05L204.59-27.05ZM225.18-27Q232.43-27 236.26-23.6 240.08-20.2 240.08-13.2L240.08-13.2 240.08-11.5 220.28-11.5Q220.28-8.65 221.56-7.2 222.83-5.75 225.58-5.75L225.58-5.75Q228.08-5.75 229.26-6.8 230.43-7.85 230.43-9.6L230.43-9.6 240.08-9.6Q240.08-4.8 236.43-2.1 232.78 0.6 225.78 0.6L225.78 0.6Q218.43 0.6 214.38-2.83 210.33-6.25 210.33-13.2L210.33-13.2Q210.33-20 214.28-23.5 218.23-27 225.18-27L225.18-27ZM225.58-20.65Q220.88-20.65 220.33-16.2L220.33-16.2 230.03-16.2Q230.03-18.25 228.86-19.45 227.68-20.65 225.58-20.65L225.58-20.65ZM288.83 0L280.73 0 279.88-3.75Q276.98 0.6 271.48 0.6L271.48 0.6Q266.13 0.6 263.23-2.9 260.33-6.4 260.33-13.25L260.33-13.25Q260.33-20.05 263.23-23.53 266.13-27 271.48-27L271.48-27Q276.03-27 278.88-23.95L278.88-23.95 278.88-36.25 288.83-36.25 288.83 0ZM274.58-19.65Q270.28-19.65 270.28-14.5L270.28-14.5 270.28-11.85Q270.28-6.75 274.58-6.75L274.58-6.75Q276.78-6.75 277.88-8.3 278.98-9.85 278.98-12.35L278.98-12.35 278.98-14Q278.98-16.5 277.88-18.07 276.78-19.65 274.58-19.65L274.58-19.65ZM308.53-27Q315.78-27 319.6-23.6 323.43-20.2 323.43-13.2L323.43-13.2 323.43-11.5 303.63-11.5Q303.63-8.65 304.9-7.2 306.18-5.75 308.93-5.75L308.93-5.75Q311.43-5.75 312.6-6.8 313.78-7.85 313.78-9.6L313.78-9.6 323.43-9.6Q323.43-4.8 319.78-2.1 316.13 0.6 309.13 0.6L309.13 0.6Q301.78 0.6 297.73-2.83 293.68-6.25 293.68-13.2L293.68-13.2Q293.68-20 297.63-23.5 301.58-27 308.53-27L308.53-27ZM308.93-20.65Q304.23-20.65 303.68-16.2L303.68-16.2 313.38-16.2Q313.38-18.25 312.2-19.45 311.03-20.65 308.93-20.65L308.93-20.65ZM344.37 0L333.92 0 323.92-26.4 334.62-26.4 339.47-9.95 339.82-9.95 344.67-26.4 354.47-26.4 344.37 0ZM369.82-27Q377.07-27 380.9-23.6 384.72-20.2 384.72-13.2L384.72-13.2 384.72-11.5 364.92-11.5Q364.92-8.65 366.2-7.2 367.47-5.75 370.22-5.75L370.22-5.75Q372.72-5.75 373.9-6.8 375.07-7.85 375.07-9.6L375.07-9.6 384.72-9.6Q384.72-4.8 381.07-2.1 377.42 0.6 370.42 0.6L370.42 0.6Q363.07 0.6 359.02-2.83 354.97-6.25 354.97-13.2L354.97-13.2Q354.97-20 358.92-23.5 362.87-27 369.82-27L369.82-27ZM370.22-20.65Q365.52-20.65 364.97-16.2L364.97-16.2 374.67-16.2Q374.67-18.25 373.5-19.45 372.32-20.65 370.22-20.65L370.22-20.65ZM399.82 0L389.87 0 389.87-36.25 399.82-36.25 399.82 0ZM419.82-27Q426.77-27 430.74-23.48 434.72-19.95 434.72-13.2L434.72-13.2Q434.72-6.45 430.74-2.93 426.77 0.6 419.82 0.6L419.82 0.6Q412.87 0.6 408.92-2.9 404.97-6.4 404.97-13.2L404.97-13.2Q404.97-20 408.92-23.5 412.87-27 419.82-27L419.82-27ZM419.82-20.25Q414.92-20.25 414.92-14.6L414.92-14.6 414.92-11.75Q414.92-6.15 419.82-6.15L419.82-6.15Q424.77-6.15 424.77-11.75L424.77-11.75 424.77-14.6Q424.77-20.25 419.82-20.25L419.82-20.25ZM456.91-27Q462.26-27 465.16-23.5 468.06-20 468.06-13.15L468.06-13.15Q468.06-6.35 465.16-2.88 462.26 0.6 456.91 0.6L456.91 0.6Q452.31 0.6 449.51-2.4L449.51-2.4 449.51 9.85 439.56 9.85 439.56-26.4 447.66-26.4 448.51-22.65Q451.41-27 456.91-27L456.91-27ZM453.81-19.65Q451.61-19.65 450.51-18.1 449.41-16.55 449.41-14.05L449.41-14.05 449.41-12.4Q449.41-9.9 450.51-8.33 451.61-6.75 453.81-6.75L453.81-6.75Q458.11-6.75 458.11-11.9L458.11-11.9 458.11-14.55Q458.11-19.65 453.81-19.65L453.81-19.65ZM486.51-27Q493.76-27 497.59-23.6 501.41-20.2 501.41-13.2L501.41-13.2 501.41-11.5 481.61-11.5Q481.61-8.65 482.89-7.2 484.16-5.75 486.91-5.75L486.91-5.75Q489.41-5.75 490.59-6.8 491.76-7.85 491.76-9.6L491.76-9.6 501.41-9.6Q501.41-4.8 497.76-2.1 494.11 0.6 487.11 0.6L487.11 0.6Q479.76 0.6 475.71-2.83 471.66-6.25 471.66-13.2L471.66-13.2Q471.66-20 475.61-23.5 479.56-27 486.51-27L486.51-27ZM486.91-20.65Q482.21-20.65 481.66-16.2L481.66-16.2 491.36-16.2Q491.36-18.25 490.19-19.45 489.01-20.65 486.91-20.65L486.91-20.65ZM522.26-27.05Q523.41-27.05 524.31-26.78 525.21-26.5 525.21-26.45L525.21-26.45 525.21-18.1 522.01-18.1Q518.91-18.1 517.53-16.5 516.16-14.9 516.16-11.75L516.16-11.75 516.16 0 506.21 0 506.21-26.4 514.36-26.4 515.01-22.4Q515.91-24.7 517.86-25.88 519.81-27.05 522.26-27.05L522.26-27.05Z" opacity="1" transform="matrix(1,0,0,1,0,0)" fill="black" class="slogan-text-1" id="SvgjsPath1374" stroke-width="7" stroke="black" stroke-linejoin="round"></path></svg></g></svg></g></svg></g></svg></g><g></g></svg></g></svg></g></svg></g></mask><g transform="matrix(1,0,0,1,115.90126905370703,37.08)"><svg viewBox="0 0 163.71746189258593 173.04" height="173.04" width="163.71746189258593"><g><svg viewBox="0 0 163.71746189258593 173.04" height="173.04" width="163.71746189258593"><g><svg viewBox="0 0 214.4965182571773 226.71056031624693" height="173.04" width="163.71746189258593"><g><svg viewBox="0 0 214.4965182571773 226.71056031624693" height="226.71056031624693" width="214.4965182571773"><g id="textblocktransform"><svg viewBox="0 0 214.4965182571773 226.71056031624693" height="226.71056031624693" width="214.4965182571773" id="textblock"><g><svg viewBox="0 0 214.4965182571773 171.9706128" height="171.9706128" width="214.4965182571773"><g transform="matrix(1,0,0,1,0,0)"><svg width="214.4965182571773" viewBox="-0.20000000000000018 -38.45 52.7 42.45" height="171.9706128" data-palette-color="#000000"><path d="M24.2 0L19.2 0 12.5-14.75Q12.15-14.7 11.45-14.7L11.45-14.7 8.35-14.7 8.35 0 3.8 0 3.8-34.45 10.7-34.45Q16.75-34.45 19.7-31.95 22.65-29.45 22.65-24.75L22.65-24.75Q22.65-21.45 21.1-19.07 19.55-16.7 16.65-15.6L16.65-15.6 24.2 0ZM11.05-18.2Q14.65-18.2 16.25-19.78 17.85-21.35 17.85-24.75L17.85-24.75Q17.85-27.9 16.2-29.38 14.55-30.85 10.65-30.85L10.65-30.85 8.35-30.85 8.35-18.2 11.05-18.2ZM41.1-18.2Q44.6-17.5 46.55-15.58 48.5-13.65 48.5-9.75L48.5-9.75Q48.5-4.9 45.32-2.45 42.15 0 36.6 0L36.6 0 28.9 0 28.9-34.45 35.45-34.45Q41.15-34.45 44.2-32.2 47.25-29.95 47.25-25.75L47.25-25.75Q47.25-22.8 45.62-20.9 44-19 41.1-18.2L41.1-18.2ZM35.9-30.85L33.45-30.85 33.45-19.8 36.4-19.8Q39.5-19.8 41.05-21.23 42.6-22.65 42.6-25.4L42.6-25.4Q42.6-28.35 40.97-29.6 39.35-30.85 35.9-30.85L35.9-30.85ZM36.6-3.65Q40.1-3.65 41.92-5.03 43.75-6.4 43.75-9.75L43.75-9.75Q43.75-13.2 42.02-14.73 40.3-16.25 36.75-16.25L36.75-16.25 33.45-16.25 33.45-3.65 36.6-3.65Z" opacity="1" transform="matrix(1,0,0,1,0,0)" fill="#ffffff" class="wordmark-text-0" data-fill-palette-color="primary" id="text-0"></path></svg></g></svg></g><g transform="matrix(1,0,0,1,3.5,205.7126086901084)"><svg viewBox="0 0 207.4965182571773 20.99795162613855" height="20.99795162613855" width="207.4965182571773"><g transform="matrix(1,0,0,1,0,0)"><svg width="207.4965182571773" viewBox="-2.4 -40.85 531.61 54.7" height="20.99795162613855" data-palette-color="#61777f"><path d="M15.55-27Q20.85-27 24.53-24.93 28.2-22.85 28.2-18.5L28.2-18.5 18.95-18.5Q18.95-19.95 17.65-20.55L17.65-20.55Q16.75-21.05 15.4-21.05L15.4-21.05Q11.8-21.05 11.8-19.35L11.8-19.35Q11.8-18.4 13.05-18 14.3-17.6 17.15-17.15L17.15-17.15Q20.65-16.65 23-15.98 25.35-15.3 27.1-13.58 28.85-11.85 28.85-8.75L28.85-8.75Q28.85-3.7 25.08-1.55 21.3 0.6 15.2 0.6L15.2 0.6Q11.7 0.6 8.6-0.38 5.5-1.35 3.55-3.4 1.6-5.45 1.6-8.6L1.6-8.6 10.85-8.6 10.85-8.4Q10.9-6.7 12.28-6.03 13.65-5.35 15.2-5.35L15.2-5.35Q19.35-5.35 19.35-7.3L19.35-7.3Q19.35-8.3 18.05-8.75 16.75-9.2 13.8-9.7L13.8-9.7Q10.25-10.3 7.98-11 5.7-11.7 4-13.38 2.3-15.05 2.3-18.05L2.3-18.05Q2.3-22.9 5.98-24.95 9.65-27 15.55-27L15.55-27ZM47.2-27Q54.15-27 58.12-23.48 62.1-19.95 62.1-13.2L62.1-13.2Q62.1-6.45 58.12-2.93 54.15 0.6 47.2 0.6L47.2 0.6Q40.25 0.6 36.3-2.9 32.35-6.4 32.35-13.2L32.35-13.2Q32.35-20 36.3-23.5 40.25-27 47.2-27L47.2-27ZM47.2-20.25Q42.3-20.25 42.3-14.6L42.3-14.6 42.3-11.75Q42.3-6.15 47.2-6.15L47.2-6.15Q52.15-6.15 52.15-11.75L52.15-11.75 52.15-14.6Q52.15-20.25 47.2-20.25L47.2-20.25ZM77.65-36.85Q78.75-36.85 80.4-36.58 82.05-36.3 83.05-35.95L83.05-35.95 83.05-30.1 80.75-30.1Q79.15-30.1 78.55-29.5 77.95-28.9 77.95-27.45L77.95-27.45 77.95-26.4 83.05-26.4 83.05-19.65 77.95-19.65 77.95 0 68 0 68-19.65 64.3-19.65 64.3-26.4 68-26.4 68-27.5Q68-32.6 70.5-34.73 73-36.85 77.65-36.85L77.65-36.85ZM98.34-26.4L103.94-26.4 103.94-19.65 98.34-19.65 98.34-9.6Q98.34-7.8 98.94-6.98 99.54-6.15 101.14-6.15L101.14-6.15 103.94-6.15 103.94-0.3Q102.74 0.1 100.84 0.35 98.94 0.6 97.54 0.6L97.54 0.6Q93.14 0.6 90.77-1 88.39-2.6 88.39-6.45L88.39-6.45 88.39-19.65 84.69-19.65 84.69-26.4 88.79-26.4 90.94-34.4 98.34-34.4 98.34-26.4ZM143.04 0L133.34 0 129.24-14.7 129.04-14.7 124.89 0 115.19 0 105.54-26.4 116.24-26.4 120.24-10.8 120.59-10.8 124.74-26.4 134.64-26.4 138.64-10.8 138.99-10.8 143.04-26.4 152.74-26.4 143.04 0ZM168.24-27Q174.29-27 178.09-24.98 181.89-22.95 181.89-18.4L181.89-18.4 181.89-8.1Q181.89-7.25 182.29-6.7 182.69-6.15 183.49-6.15L183.49-6.15 185.29-6.15 185.29-0.4Q185.14-0.3 184.51-0.08 183.89 0.15 182.74 0.38 181.59 0.6 180.09 0.6L180.09 0.6Q177.19 0.6 175.31-0.28 173.44-1.15 172.74-2.7L172.74-2.7Q170.84-1.2 168.49-0.3 166.14 0.6 162.99 0.6L162.99 0.6Q153.69 0.6 153.69-6.8L153.69-6.8Q153.69-10.65 155.76-12.68 157.84-14.7 161.74-15.45 165.64-16.2 171.94-16.2L171.94-16.2 171.94-17.5Q171.94-19.05 170.86-19.85 169.79-20.65 168.09-20.65L168.09-20.65Q166.54-20.65 165.41-20.1 164.29-19.55 164.29-18.35L164.29-18.35 164.29-18.15 154.49-18.15Q154.44-18.4 154.44-18.85L154.44-18.85Q154.44-22.6 158.01-24.8 161.59-27 168.24-27L168.24-27ZM171.94-11.5Q167.69-11.5 165.66-10.58 163.64-9.65 163.64-8.1L163.64-8.1Q163.64-5.6 167.04-5.6L167.04-5.6Q168.99-5.6 170.46-6.65 171.94-7.7 171.94-9.25L171.94-9.25 171.94-11.5ZM204.59-27.05Q205.74-27.05 206.63-26.78 207.53-26.5 207.53-26.45L207.53-26.45 207.53-18.1 204.34-18.1Q201.23-18.1 199.86-16.5 198.48-14.9 198.48-11.75L198.48-11.75 198.48 0 188.53 0 188.53-26.4 196.69-26.4 197.34-22.4Q198.23-24.7 200.19-25.88 202.13-27.05 204.59-27.05L204.59-27.05ZM225.18-27Q232.43-27 236.26-23.6 240.08-20.2 240.08-13.2L240.08-13.2 240.08-11.5 220.28-11.5Q220.28-8.65 221.56-7.2 222.83-5.75 225.58-5.75L225.58-5.75Q228.08-5.75 229.26-6.8 230.43-7.85 230.43-9.6L230.43-9.6 240.08-9.6Q240.08-4.8 236.43-2.1 232.78 0.6 225.78 0.6L225.78 0.6Q218.43 0.6 214.38-2.83 210.33-6.25 210.33-13.2L210.33-13.2Q210.33-20 214.28-23.5 218.23-27 225.18-27L225.18-27ZM225.58-20.65Q220.88-20.65 220.33-16.2L220.33-16.2 230.03-16.2Q230.03-18.25 228.86-19.45 227.68-20.65 225.58-20.65L225.58-20.65ZM288.83 0L280.73 0 279.88-3.75Q276.98 0.6 271.48 0.6L271.48 0.6Q266.13 0.6 263.23-2.9 260.33-6.4 260.33-13.25L260.33-13.25Q260.33-20.05 263.23-23.53 266.13-27 271.48-27L271.48-27Q276.03-27 278.88-23.95L278.88-23.95 278.88-36.25 288.83-36.25 288.83 0ZM274.58-19.65Q270.28-19.65 270.28-14.5L270.28-14.5 270.28-11.85Q270.28-6.75 274.58-6.75L274.58-6.75Q276.78-6.75 277.88-8.3 278.98-9.85 278.98-12.35L278.98-12.35 278.98-14Q278.98-16.5 277.88-18.07 276.78-19.65 274.58-19.65L274.58-19.65ZM308.53-27Q315.78-27 319.6-23.6 323.43-20.2 323.43-13.2L323.43-13.2 323.43-11.5 303.63-11.5Q303.63-8.65 304.9-7.2 306.18-5.75 308.93-5.75L308.93-5.75Q311.43-5.75 312.6-6.8 313.78-7.85 313.78-9.6L313.78-9.6 323.43-9.6Q323.43-4.8 319.78-2.1 316.13 0.6 309.13 0.6L309.13 0.6Q301.78 0.6 297.73-2.83 293.68-6.25 293.68-13.2L293.68-13.2Q293.68-20 297.63-23.5 301.58-27 308.53-27L308.53-27ZM308.93-20.65Q304.23-20.65 303.68-16.2L303.68-16.2 313.38-16.2Q313.38-18.25 312.2-19.45 311.03-20.65 308.93-20.65L308.93-20.65ZM344.37 0L333.92 0 323.92-26.4 334.62-26.4 339.47-9.95 339.82-9.95 344.67-26.4 354.47-26.4 344.37 0ZM369.82-27Q377.07-27 380.9-23.6 384.72-20.2 384.72-13.2L384.72-13.2 384.72-11.5 364.92-11.5Q364.92-8.65 366.2-7.2 367.47-5.75 370.22-5.75L370.22-5.75Q372.72-5.75 373.9-6.8 375.07-7.85 375.07-9.6L375.07-9.6 384.72-9.6Q384.72-4.8 381.07-2.1 377.42 0.6 370.42 0.6L370.42 0.6Q363.07 0.6 359.02-2.83 354.97-6.25 354.97-13.2L354.97-13.2Q354.97-20 358.92-23.5 362.87-27 369.82-27L369.82-27ZM370.22-20.65Q365.52-20.65 364.97-16.2L364.97-16.2 374.67-16.2Q374.67-18.25 373.5-19.45 372.32-20.65 370.22-20.65L370.22-20.65ZM399.82 0L389.87 0 389.87-36.25 399.82-36.25 399.82 0ZM419.82-27Q426.77-27 430.74-23.48 434.72-19.95 434.72-13.2L434.72-13.2Q434.72-6.45 430.74-2.93 426.77 0.6 419.82 0.6L419.82 0.6Q412.87 0.6 408.92-2.9 404.97-6.4 404.97-13.2L404.97-13.2Q404.97-20 408.92-23.5 412.87-27 419.82-27L419.82-27ZM419.82-20.25Q414.92-20.25 414.92-14.6L414.92-14.6 414.92-11.75Q414.92-6.15 419.82-6.15L419.82-6.15Q424.77-6.15 424.77-11.75L424.77-11.75 424.77-14.6Q424.77-20.25 419.82-20.25L419.82-20.25ZM456.91-27Q462.26-27 465.16-23.5 468.06-20 468.06-13.15L468.06-13.15Q468.06-6.35 465.16-2.88 462.26 0.6 456.91 0.6L456.91 0.6Q452.31 0.6 449.51-2.4L449.51-2.4 449.51 9.85 439.56 9.85 439.56-26.4 447.66-26.4 448.51-22.65Q451.41-27 456.91-27L456.91-27ZM453.81-19.65Q451.61-19.65 450.51-18.1 449.41-16.55 449.41-14.05L449.41-14.05 449.41-12.4Q449.41-9.9 450.51-8.33 451.61-6.75 453.81-6.75L453.81-6.75Q458.11-6.75 458.11-11.9L458.11-11.9 458.11-14.55Q458.11-19.65 453.81-19.65L453.81-19.65ZM486.51-27Q493.76-27 497.59-23.6 501.41-20.2 501.41-13.2L501.41-13.2 501.41-11.5 481.61-11.5Q481.61-8.65 482.89-7.2 484.16-5.75 486.91-5.75L486.91-5.75Q489.41-5.75 490.59-6.8 491.76-7.85 491.76-9.6L491.76-9.6 501.41-9.6Q501.41-4.8 497.76-2.1 494.11 0.6 487.11 0.6L487.11 0.6Q479.76 0.6 475.71-2.83 471.66-6.25 471.66-13.2L471.66-13.2Q471.66-20 475.61-23.5 479.56-27 486.51-27L486.51-27ZM486.91-20.65Q482.21-20.65 481.66-16.2L481.66-16.2 491.36-16.2Q491.36-18.25 490.19-19.45 489.01-20.65 486.91-20.65L486.91-20.65ZM522.26-27.05Q523.41-27.05 524.31-26.78 525.21-26.5 525.21-26.45L525.21-26.45 525.21-18.1 522.01-18.1Q518.91-18.1 517.53-16.5 516.16-14.9 516.16-11.75L516.16-11.75 516.16 0 506.21 0 506.21-26.4 514.36-26.4 515.01-22.4Q515.91-24.7 517.86-25.88 519.81-27.05 522.26-27.05L522.26-27.05Z" opacity="1" transform="matrix(1,0,0,1,0,0)" fill="#ffffff" class="slogan-text-1" data-fill-palette-color="secondary" id="text-1"></path></svg></g></svg></g></svg></g></svg></g><g></g></svg></g></svg></g></svg></g><g mask="url(#77182c94-b6c5-4265-af2c-abde36818d7e)"><g transform="matrix(4.251420669389166, 0, 0, 4.251420669389166, 1, 4.565795947431695)"><svg xmlns="http://www.w3.org/2000/svg" xmlns:xlink="http://www.w3.org/1999/xlink" version="1.1" viewBox="1.7189999999999983 20.00262250704499 92.562 55.99737749295501" x="0" y="0" height="55.99737749295501" width="92.562" class="icon-none" data-fill-palette-color="accent" id="none"><path d="M28.288 74.572c-0.512 0-1.024-0.196-1.416-0.584l-24.568-24.572c-0.78-0.776-0.78-2.052 0-2.828l24.568-24.576c0.78-0.78 2.052-0.78 2.828 0 0.78 0.78 0.78 2.048 0 2.828l-23.156 23.156 23.156 23.156c0.78 0.78 0.78 2.048 0 2.828-0.388 0.396-0.9 0.592-1.412 0.592z" fill="#ffffff" data-fill-palette-color="accent"></path><path d="M67.716 74.572c-0.512 0-1.024-0.196-1.416-0.584-0.78-0.78-0.78-2.048 0-2.828l23.156-23.16-23.156-23.156c-0.78-0.78-0.78-2.048 0-2.828s2.048-0.78 2.828 0l24.568 24.576c0.78 0.776 0.78 2.052 0 2.828l-24.568 24.572c-0.388 0.384-0.9 0.58-1.412 0.58z" fill="#ffffff" data-fill-palette-color="accent"></path><path d="M38.288 76c-0.244 0-0.484-0.048-0.724-0.132-1.028-0.4-1.544-1.556-1.144-2.584l20-52c0.396-1.028 1.556-1.544 2.584-1.148 1.028 0.4 1.544 1.556 1.148 2.584l-20 52c-0.304 0.788-1.06 1.28-1.864 1.28z" fill="#ffffff" data-fill-palette-color="accent"></path></svg></g></g></svg></g><defs></defs></svg><rect width="395.52" height="247.2" fill="none" stroke="none" visibility="hidden"></rect></g></svg></g></svg>